<svg width="96" height="19" viewBox="0 0 96 19" fill="none" xmlns="http://www.w3.org/2000/svg">
	<path d="M89.6768 10.4226L89.6381 5.04696H92.5387L92.4807 6.61325H92.5193C92.7385 6.0976 93.0865 5.66574 93.5635 5.31768C94.0534 4.95672 94.6851 4.77625 95.4585 4.77625C95.6648 4.77625 95.8453 4.79558 96 4.83426L95.9806 7.67679C95.7099 7.61233 95.4199 7.5801 95.1105 7.5801C94.2468 7.5801 93.5893 7.83148 93.1381 8.33424C92.6998 8.82411 92.4807 9.55247 92.4807 10.5193V11.0027L92.5387 15.3536H89.6381L89.6768 10.4226Z" fill="#151515"/>
	<path d="M81.6316 15.6436C80.6003 15.6436 79.7817 15.3793 79.1758 14.8508C78.5828 14.3222 78.2863 13.6261 78.2863 12.7624C78.2863 11.5119 78.7762 10.6418 79.7559 10.1519C80.7356 9.66205 82.2052 9.41711 84.1647 9.41711H84.8222V9.10772C84.8222 8.41159 84.6739 7.88305 84.3774 7.52209C84.0809 7.14824 83.6039 6.96132 82.9465 6.96132C82.2632 6.96132 81.7605 7.17403 81.4382 7.59944C81.1288 8.01196 80.9741 8.50828 80.9741 9.08838L78.5763 8.52761C78.6666 7.40607 79.1113 6.50368 79.9106 5.82044C80.7227 5.12431 81.7927 4.77625 83.1205 4.77625C84.6417 4.77625 85.7632 5.14365 86.4851 5.87845C87.2071 6.60036 87.568 7.63811 87.568 8.9917V12.6464C87.568 12.9687 87.6131 13.2007 87.7034 13.3425C87.8065 13.4714 87.9805 13.5359 88.2255 13.5359C88.3931 13.5359 88.5993 13.4908 88.8443 13.4005L89.2117 15.2762C88.696 15.4825 88.103 15.5856 87.4327 15.5856C86.1564 15.5856 85.4603 14.9861 85.3443 13.7873C85.3443 13.5939 85.3507 13.4714 85.3636 13.4199H85.3249C85.0155 14.116 84.5386 14.6639 83.894 15.0635C83.2623 15.4502 82.5082 15.6436 81.6316 15.6436ZM81.0708 12.4143C81.0708 12.7624 81.1868 13.046 81.4189 13.2652C81.6638 13.4714 81.999 13.5746 82.4244 13.5746C82.824 13.5746 83.2108 13.4714 83.5846 13.2652C83.9585 13.046 84.255 12.7431 84.4741 12.3563C84.7062 11.9696 84.8222 11.5248 84.8222 11.0221V10.9061H84.3581C83.185 10.9061 82.3406 11.0156 81.8249 11.2348C81.3222 11.441 81.0708 11.8342 81.0708 12.4143Z" fill="#151515"/>
	<path d="M74.3802 8.54695L74.3416 1.93372H77.2421L77.1841 8.54695L77.2421 15.3536H74.3416L74.3802 8.54695Z" fill="#151515"/>
	<path d="M72.7589 9.97792L72.7976 15.3536H69.8971L69.9358 13.9227H69.8971C69.6135 14.4254 69.1881 14.8379 68.6208 15.1602C68.0536 15.4696 67.4348 15.6243 66.7645 15.6243C65.6301 15.6243 64.7728 15.2891 64.1927 14.6188C63.6126 13.9355 63.3225 12.8849 63.3225 11.4669V9.97792L63.2838 5.047H66.1844L66.1264 9.97792V11.0028C66.1264 11.6989 66.2811 12.2274 66.5905 12.5884C66.8999 12.9494 67.3317 13.1298 67.886 13.1298C68.4661 13.1298 68.9496 12.9042 69.3363 12.453C69.7359 11.989 69.9358 11.3831 69.9358 10.6354V9.97792L69.8971 5.047H72.7976L72.7589 9.97792Z" fill="#151515"/>
	<path d="M56.6368 18.7182C55.2445 18.7182 54.1487 18.4217 53.3495 17.8287C52.5631 17.2357 52.0733 16.4429 51.8799 15.4502L54.239 14.7734C54.3937 15.9852 55.1478 16.5911 56.5014 16.5911C57.4167 16.5911 58.0419 16.3268 58.3771 15.7983C58.7123 15.2698 58.8799 14.4963 58.8799 13.4779V13.1105H58.8218C58.5511 13.5359 58.1386 13.9097 57.5843 14.232C57.0428 14.5414 56.4305 14.6961 55.7473 14.6961C54.4839 14.6961 53.4848 14.2707 52.75 13.4199C52.0281 12.569 51.6672 11.3701 51.6672 9.82319C51.6672 8.28912 52.0281 7.06445 52.75 6.14917C53.472 5.23389 54.471 4.77625 55.7473 4.77625C56.4305 4.77625 57.0493 4.93739 57.6036 5.25967C58.1579 5.58195 58.5705 5.97514 58.8412 6.43922H58.8799L58.8605 5.04696H61.7804V12.627C61.7804 14.767 61.3292 16.314 60.4268 17.2679C59.5373 18.2348 58.274 18.7182 56.6368 18.7182ZM54.6064 9.82319C54.6064 10.6224 54.7869 11.267 55.1478 11.7569C55.5217 12.2339 56.0438 12.4723 56.7141 12.4723C57.32 12.4723 57.8292 12.2596 58.2417 11.8342C58.6671 11.3959 58.8799 10.7256 58.8799 9.82319C58.8799 9.12706 58.6994 8.51472 58.3384 7.98618C57.9775 7.44474 57.436 7.17403 56.7141 7.17403C56.0696 7.17403 55.5539 7.41896 55.1672 7.90883C54.7933 8.3987 54.6064 9.03682 54.6064 9.82319Z" fill="#151515"/>
	<path d="M41.1532 10.4226L41.1145 5.04696H44.015L43.957 6.4779H43.9957C44.2793 5.96224 44.7047 5.54972 45.2719 5.24033C45.8521 4.93094 46.5095 4.77625 47.2443 4.77625C48.3787 4.77625 49.236 5.11142 49.8161 5.78177C50.3962 6.45211 50.6863 7.50275 50.6863 8.93369V10.4226L50.725 15.3536H47.8244L47.8631 10.4226V9.37844C47.8631 8.68231 47.702 8.15376 47.3797 7.79281C47.0703 7.43185 46.6384 7.25137 46.0841 7.25137C45.4524 7.25137 44.9368 7.47697 44.5371 7.92817C44.1504 8.37936 43.957 8.98525 43.957 9.74584V10.4226L44.015 15.3536H41.1145L41.1532 10.4226Z" fill="#151515"/>
	<path d="M36.7057 10.1906L36.667 5.04699C37.0924 5.13723 37.5758 5.18235 38.1173 5.18235C38.6587 5.18235 39.1421 5.13723 39.5675 5.04699L39.5095 10.1906L39.5675 15.3536H36.667L36.7057 10.1906ZM36.4156 2.82324C36.4156 2.34626 36.551 1.9982 36.8217 1.77905C37.0924 1.55989 37.5243 1.45032 38.1173 1.45032C38.7103 1.45032 39.1421 1.55989 39.4128 1.77905C39.6836 1.9982 39.8189 2.34626 39.8189 2.82324C39.8189 3.30022 39.6836 3.64828 39.4128 3.86743C39.1421 4.0737 38.7103 4.17683 38.1173 4.17683C37.5243 4.17683 37.0924 4.0737 36.8217 3.86743C36.551 3.64828 36.4156 3.30022 36.4156 2.82324Z" fill="#151515"/>
	<path d="M26.5014 8.64371L26.4434 1.95312H35.6671V4.44759H29.5566L29.5373 7.61885H35.3577V9.97795H29.5373L29.5953 15.3536H26.4434L26.5014 8.64371Z" fill="#151515"/>
	<rect width="18.8535" height="18.3701" rx="3.38396" fill="#0D72FF"/>
	<rect x="1.69199" y="2.41699" width="15.4696" height="3.86739" rx="1.93369" fill="white"/>
	<rect x="1.69199" y="7.2511" width="11.6022" height="3.86739" rx="1.93369" fill="white"/>
	<rect x="1.69199" y="12.0853" width="7.73478" height="3.86739" rx="1.93369" fill="white"/>
</svg>
